<mxfile host="app.diagrams.net" modified="2023-03-27T07:26:54.280Z" agent="Mozilla/5.0 (Windows NT 10.0; Win64; x64) AppleWebKit/537.36 (KHTML, like Gecko) Chrome/111.0.0.0 Safari/537.36" etag="1yc3g_GJ4Z3PTVyiN5da" version="21.1.1" type="device">
  <diagram name="PÃ¡gina-1" id="6ZdmacCj3ntVmaGOpaQ4">
    <mxGraphModel dx="3225" dy="1373" grid="1" gridSize="10" guides="1" tooltips="1" connect="1" arrows="1" fold="1" page="1" pageScale="1" pageWidth="827" pageHeight="1169" math="0" shadow="0">
      <root>
        <mxCell id="0" />
        <mxCell id="1" parent="0" />
        <mxCell id="uVGhcXkqrBgi1PUrehch-15" style="edgeStyle=orthogonalEdgeStyle;rounded=0;orthogonalLoop=1;jettySize=auto;html=1;exitX=0.5;exitY=0;exitDx=0;exitDy=0;entryX=0.5;entryY=1;entryDx=0;entryDy=0;" edge="1" parent="1" source="uVGhcXkqrBgi1PUrehch-1" target="uVGhcXkqrBgi1PUrehch-4">
          <mxGeometry relative="1" as="geometry" />
        </mxCell>
        <mxCell id="uVGhcXkqrBgi1PUrehch-16" style="edgeStyle=orthogonalEdgeStyle;rounded=0;orthogonalLoop=1;jettySize=auto;html=1;exitX=0;exitY=0.5;exitDx=0;exitDy=0;" edge="1" parent="1" source="uVGhcXkqrBgi1PUrehch-1" target="uVGhcXkqrBgi1PUrehch-2">
          <mxGeometry relative="1" as="geometry" />
        </mxCell>
        <mxCell id="uVGhcXkqrBgi1PUrehch-17" style="edgeStyle=orthogonalEdgeStyle;rounded=0;orthogonalLoop=1;jettySize=auto;html=1;exitX=0;exitY=1;exitDx=0;exitDy=0;" edge="1" parent="1" source="uVGhcXkqrBgi1PUrehch-1" target="uVGhcXkqrBgi1PUrehch-5">
          <mxGeometry relative="1" as="geometry" />
        </mxCell>
        <mxCell id="uVGhcXkqrBgi1PUrehch-18" style="edgeStyle=orthogonalEdgeStyle;rounded=0;orthogonalLoop=1;jettySize=auto;html=1;exitX=1;exitY=1;exitDx=0;exitDy=0;entryX=0;entryY=0;entryDx=0;entryDy=0;" edge="1" parent="1" source="uVGhcXkqrBgi1PUrehch-1" target="uVGhcXkqrBgi1PUrehch-6">
          <mxGeometry relative="1" as="geometry" />
        </mxCell>
        <mxCell id="uVGhcXkqrBgi1PUrehch-19" style="edgeStyle=orthogonalEdgeStyle;rounded=0;orthogonalLoop=1;jettySize=auto;html=1;exitX=1;exitY=0.5;exitDx=0;exitDy=0;" edge="1" parent="1" source="uVGhcXkqrBgi1PUrehch-1" target="uVGhcXkqrBgi1PUrehch-7">
          <mxGeometry relative="1" as="geometry" />
        </mxCell>
        <mxCell id="uVGhcXkqrBgi1PUrehch-1" value="Person" style="ellipse;whiteSpace=wrap;html=1;aspect=fixed;" vertex="1" parent="1">
          <mxGeometry x="360" y="340" width="80" height="80" as="geometry" />
        </mxCell>
        <mxCell id="uVGhcXkqrBgi1PUrehch-22" style="edgeStyle=orthogonalEdgeStyle;rounded=0;orthogonalLoop=1;jettySize=auto;html=1;exitX=0;exitY=0.5;exitDx=0;exitDy=0;entryX=1;entryY=0.5;entryDx=0;entryDy=0;" edge="1" parent="1" source="uVGhcXkqrBgi1PUrehch-2" target="uVGhcXkqrBgi1PUrehch-9">
          <mxGeometry relative="1" as="geometry" />
        </mxCell>
        <mxCell id="uVGhcXkqrBgi1PUrehch-128" style="edgeStyle=orthogonalEdgeStyle;rounded=0;orthogonalLoop=1;jettySize=auto;html=1;exitX=0.5;exitY=1;exitDx=0;exitDy=0;entryX=0;entryY=0.5;entryDx=0;entryDy=0;" edge="1" parent="1" source="uVGhcXkqrBgi1PUrehch-2" target="uVGhcXkqrBgi1PUrehch-75">
          <mxGeometry relative="1" as="geometry">
            <Array as="points">
              <mxPoint x="250" y="420" />
              <mxPoint x="250" y="970" />
            </Array>
          </mxGeometry>
        </mxCell>
        <mxCell id="uVGhcXkqrBgi1PUrehch-2" value="Alice" style="ellipse;whiteSpace=wrap;html=1;aspect=fixed;" vertex="1" parent="1">
          <mxGeometry x="240" y="340" width="80" height="80" as="geometry" />
        </mxCell>
        <mxCell id="uVGhcXkqrBgi1PUrehch-21" style="edgeStyle=orthogonalEdgeStyle;rounded=0;orthogonalLoop=1;jettySize=auto;html=1;exitX=0.5;exitY=0;exitDx=0;exitDy=0;entryX=0.5;entryY=1;entryDx=0;entryDy=0;" edge="1" parent="1" source="uVGhcXkqrBgi1PUrehch-4" target="uVGhcXkqrBgi1PUrehch-14">
          <mxGeometry relative="1" as="geometry" />
        </mxCell>
        <mxCell id="uVGhcXkqrBgi1PUrehch-115" style="edgeStyle=orthogonalEdgeStyle;rounded=0;orthogonalLoop=1;jettySize=auto;html=1;entryX=0.5;entryY=0;entryDx=0;entryDy=0;" edge="1" parent="1" source="uVGhcXkqrBgi1PUrehch-4" target="uVGhcXkqrBgi1PUrehch-40">
          <mxGeometry relative="1" as="geometry">
            <Array as="points">
              <mxPoint x="520" y="270" />
              <mxPoint x="520" y="20" />
              <mxPoint x="1179" y="20" />
            </Array>
          </mxGeometry>
        </mxCell>
        <mxCell id="uVGhcXkqrBgi1PUrehch-131" style="edgeStyle=orthogonalEdgeStyle;rounded=0;orthogonalLoop=1;jettySize=auto;html=1;exitX=1;exitY=0.5;exitDx=0;exitDy=0;entryX=1;entryY=0.5;entryDx=0;entryDy=0;" edge="1" parent="1" source="uVGhcXkqrBgi1PUrehch-4" target="uVGhcXkqrBgi1PUrehch-79">
          <mxGeometry relative="1" as="geometry">
            <Array as="points">
              <mxPoint x="760" y="270" />
              <mxPoint x="760" y="1190" />
              <mxPoint x="530" y="1190" />
            </Array>
          </mxGeometry>
        </mxCell>
        <mxCell id="uVGhcXkqrBgi1PUrehch-4" value="Bob" style="ellipse;whiteSpace=wrap;html=1;aspect=fixed;" vertex="1" parent="1">
          <mxGeometry x="360" y="230" width="80" height="80" as="geometry" />
        </mxCell>
        <mxCell id="uVGhcXkqrBgi1PUrehch-23" style="edgeStyle=orthogonalEdgeStyle;rounded=0;orthogonalLoop=1;jettySize=auto;html=1;exitX=0.5;exitY=1;exitDx=0;exitDy=0;entryX=0.5;entryY=0;entryDx=0;entryDy=0;" edge="1" parent="1" source="uVGhcXkqrBgi1PUrehch-5" target="uVGhcXkqrBgi1PUrehch-12">
          <mxGeometry relative="1" as="geometry" />
        </mxCell>
        <mxCell id="uVGhcXkqrBgi1PUrehch-120" style="edgeStyle=orthogonalEdgeStyle;rounded=0;orthogonalLoop=1;jettySize=auto;html=1;exitX=0;exitY=0.5;exitDx=0;exitDy=0;entryX=1;entryY=0.5;entryDx=0;entryDy=0;" edge="1" parent="1" source="uVGhcXkqrBgi1PUrehch-5" target="uVGhcXkqrBgi1PUrehch-38">
          <mxGeometry relative="1" as="geometry">
            <Array as="points">
              <mxPoint x="180" y="480" />
              <mxPoint x="180" y="710" />
              <mxPoint x="1250" y="710" />
              <mxPoint x="1250" y="510" />
            </Array>
          </mxGeometry>
        </mxCell>
        <mxCell id="uVGhcXkqrBgi1PUrehch-132" style="edgeStyle=orthogonalEdgeStyle;rounded=0;orthogonalLoop=1;jettySize=auto;html=1;exitX=1;exitY=0.5;exitDx=0;exitDy=0;entryX=0;entryY=0;entryDx=0;entryDy=0;" edge="1" parent="1" source="uVGhcXkqrBgi1PUrehch-5" target="uVGhcXkqrBgi1PUrehch-86">
          <mxGeometry relative="1" as="geometry">
            <Array as="points">
              <mxPoint x="420" y="480" />
              <mxPoint x="420" y="952" />
            </Array>
          </mxGeometry>
        </mxCell>
        <mxCell id="uVGhcXkqrBgi1PUrehch-5" value="Charlie" style="ellipse;whiteSpace=wrap;html=1;aspect=fixed;" vertex="1" parent="1">
          <mxGeometry x="300" y="440" width="80" height="80" as="geometry" />
        </mxCell>
        <mxCell id="uVGhcXkqrBgi1PUrehch-24" style="edgeStyle=orthogonalEdgeStyle;rounded=0;orthogonalLoop=1;jettySize=auto;html=1;exitX=0.5;exitY=1;exitDx=0;exitDy=0;entryX=0.5;entryY=0;entryDx=0;entryDy=0;" edge="1" parent="1" source="uVGhcXkqrBgi1PUrehch-6" target="uVGhcXkqrBgi1PUrehch-11">
          <mxGeometry relative="1" as="geometry" />
        </mxCell>
        <mxCell id="uVGhcXkqrBgi1PUrehch-118" style="edgeStyle=orthogonalEdgeStyle;rounded=0;orthogonalLoop=1;jettySize=auto;html=1;exitX=1;exitY=0.5;exitDx=0;exitDy=0;entryX=0.5;entryY=1;entryDx=0;entryDy=0;" edge="1" parent="1" source="uVGhcXkqrBgi1PUrehch-6" target="uVGhcXkqrBgi1PUrehch-32">
          <mxGeometry relative="1" as="geometry" />
        </mxCell>
        <mxCell id="uVGhcXkqrBgi1PUrehch-134" style="edgeStyle=orthogonalEdgeStyle;rounded=0;orthogonalLoop=1;jettySize=auto;html=1;exitX=1;exitY=1;exitDx=0;exitDy=0;entryX=1;entryY=0;entryDx=0;entryDy=0;" edge="1" parent="1" source="uVGhcXkqrBgi1PUrehch-6" target="uVGhcXkqrBgi1PUrehch-81">
          <mxGeometry relative="1" as="geometry">
            <Array as="points">
              <mxPoint x="518" y="520" />
              <mxPoint x="610" y="520" />
              <mxPoint x="610" y="785" />
              <mxPoint x="720" y="785" />
              <mxPoint x="720" y="1010" />
              <mxPoint x="548" y="1010" />
            </Array>
          </mxGeometry>
        </mxCell>
        <mxCell id="uVGhcXkqrBgi1PUrehch-6" value="Dave" style="ellipse;whiteSpace=wrap;html=1;aspect=fixed;" vertex="1" parent="1">
          <mxGeometry x="450" y="440" width="80" height="80" as="geometry" />
        </mxCell>
        <mxCell id="uVGhcXkqrBgi1PUrehch-20" style="edgeStyle=orthogonalEdgeStyle;rounded=0;orthogonalLoop=1;jettySize=auto;html=1;exitX=1;exitY=0.5;exitDx=0;exitDy=0;entryX=0;entryY=0.5;entryDx=0;entryDy=0;" edge="1" parent="1" source="uVGhcXkqrBgi1PUrehch-7" target="uVGhcXkqrBgi1PUrehch-10">
          <mxGeometry relative="1" as="geometry" />
        </mxCell>
        <mxCell id="uVGhcXkqrBgi1PUrehch-116" style="edgeStyle=orthogonalEdgeStyle;rounded=0;orthogonalLoop=1;jettySize=auto;html=1;exitX=0.5;exitY=0;exitDx=0;exitDy=0;entryX=0.5;entryY=0;entryDx=0;entryDy=0;" edge="1" parent="1" source="uVGhcXkqrBgi1PUrehch-7" target="uVGhcXkqrBgi1PUrehch-32">
          <mxGeometry relative="1" as="geometry">
            <Array as="points">
              <mxPoint x="520" y="280" />
              <mxPoint x="939" y="280" />
            </Array>
          </mxGeometry>
        </mxCell>
        <mxCell id="uVGhcXkqrBgi1PUrehch-117" style="edgeStyle=orthogonalEdgeStyle;rounded=0;orthogonalLoop=1;jettySize=auto;html=1;exitX=0.5;exitY=1;exitDx=0;exitDy=0;entryX=0;entryY=0.5;entryDx=0;entryDy=0;" edge="1" parent="1" source="uVGhcXkqrBgi1PUrehch-7" target="uVGhcXkqrBgi1PUrehch-36">
          <mxGeometry relative="1" as="geometry">
            <Array as="points">
              <mxPoint x="550" y="420" />
              <mxPoint x="550" y="510" />
            </Array>
          </mxGeometry>
        </mxCell>
        <mxCell id="uVGhcXkqrBgi1PUrehch-129" style="edgeStyle=orthogonalEdgeStyle;rounded=0;orthogonalLoop=1;jettySize=auto;html=1;exitX=0.5;exitY=1;exitDx=0;exitDy=0;entryX=1.003;entryY=0.673;entryDx=0;entryDy=0;entryPerimeter=0;" edge="1" parent="1" source="uVGhcXkqrBgi1PUrehch-7" target="uVGhcXkqrBgi1PUrehch-75">
          <mxGeometry relative="1" as="geometry">
            <Array as="points">
              <mxPoint x="540" y="420" />
              <mxPoint x="540" y="530" />
              <mxPoint x="560" y="530" />
              <mxPoint x="560" y="800" />
              <mxPoint x="380" y="800" />
              <mxPoint x="380" y="984" />
            </Array>
          </mxGeometry>
        </mxCell>
        <mxCell id="uVGhcXkqrBgi1PUrehch-7" value="Eve" style="ellipse;whiteSpace=wrap;html=1;aspect=fixed;" vertex="1" parent="1">
          <mxGeometry x="480" y="340" width="80" height="80" as="geometry" />
        </mxCell>
        <mxCell id="uVGhcXkqrBgi1PUrehch-9" value="Age: 25&lt;br&gt;City: Sydney&lt;br&gt;Ocupation: Doctor" style="rounded=0;whiteSpace=wrap;html=1;" vertex="1" parent="1">
          <mxGeometry x="121" y="320" width="106" height="120" as="geometry" />
        </mxCell>
        <mxCell id="uVGhcXkqrBgi1PUrehch-10" value="Age: 45&lt;br&gt;City: Los Angeles&lt;br&gt;Ocupation: Artist" style="rounded=0;whiteSpace=wrap;html=1;" vertex="1" parent="1">
          <mxGeometry x="570" y="320" width="106" height="120" as="geometry" />
        </mxCell>
        <mxCell id="uVGhcXkqrBgi1PUrehch-11" value="Age: 40&lt;br&gt;City: NY&lt;br&gt;Ocupation: Professor" style="rounded=0;whiteSpace=wrap;html=1;" vertex="1" parent="1">
          <mxGeometry x="437" y="540" width="106" height="120" as="geometry" />
        </mxCell>
        <mxCell id="uVGhcXkqrBgi1PUrehch-12" value="Age: 35&lt;br&gt;City: Sydney&lt;br&gt;Ocupation: Lawyer" style="rounded=0;whiteSpace=wrap;html=1;" vertex="1" parent="1">
          <mxGeometry x="287" y="550" width="106" height="120" as="geometry" />
        </mxCell>
        <mxCell id="uVGhcXkqrBgi1PUrehch-14" value="Age: 30&lt;br&gt;City: Sydney&lt;br&gt;Ocupation: Engineer" style="rounded=0;whiteSpace=wrap;html=1;" vertex="1" parent="1">
          <mxGeometry x="347" y="100" width="106" height="120" as="geometry" />
        </mxCell>
        <mxCell id="uVGhcXkqrBgi1PUrehch-25" style="edgeStyle=orthogonalEdgeStyle;rounded=0;orthogonalLoop=1;jettySize=auto;html=1;exitX=0.5;exitY=0;exitDx=0;exitDy=0;entryX=0.5;entryY=1;entryDx=0;entryDy=0;" edge="1" parent="1" source="uVGhcXkqrBgi1PUrehch-30" target="uVGhcXkqrBgi1PUrehch-34">
          <mxGeometry relative="1" as="geometry" />
        </mxCell>
        <mxCell id="uVGhcXkqrBgi1PUrehch-26" style="edgeStyle=orthogonalEdgeStyle;rounded=0;orthogonalLoop=1;jettySize=auto;html=1;exitX=0;exitY=0.5;exitDx=0;exitDy=0;" edge="1" parent="1" source="uVGhcXkqrBgi1PUrehch-30" target="uVGhcXkqrBgi1PUrehch-32">
          <mxGeometry relative="1" as="geometry" />
        </mxCell>
        <mxCell id="uVGhcXkqrBgi1PUrehch-27" style="edgeStyle=orthogonalEdgeStyle;rounded=0;orthogonalLoop=1;jettySize=auto;html=1;exitX=0;exitY=1;exitDx=0;exitDy=0;" edge="1" parent="1" source="uVGhcXkqrBgi1PUrehch-30" target="uVGhcXkqrBgi1PUrehch-36">
          <mxGeometry relative="1" as="geometry" />
        </mxCell>
        <mxCell id="uVGhcXkqrBgi1PUrehch-28" style="edgeStyle=orthogonalEdgeStyle;rounded=0;orthogonalLoop=1;jettySize=auto;html=1;exitX=1;exitY=1;exitDx=0;exitDy=0;entryX=0;entryY=0;entryDx=0;entryDy=0;" edge="1" parent="1" source="uVGhcXkqrBgi1PUrehch-30" target="uVGhcXkqrBgi1PUrehch-38">
          <mxGeometry relative="1" as="geometry" />
        </mxCell>
        <mxCell id="uVGhcXkqrBgi1PUrehch-29" style="edgeStyle=orthogonalEdgeStyle;rounded=0;orthogonalLoop=1;jettySize=auto;html=1;exitX=1;exitY=0.5;exitDx=0;exitDy=0;" edge="1" parent="1" source="uVGhcXkqrBgi1PUrehch-30" target="uVGhcXkqrBgi1PUrehch-40">
          <mxGeometry relative="1" as="geometry" />
        </mxCell>
        <mxCell id="uVGhcXkqrBgi1PUrehch-30" value="Place" style="ellipse;whiteSpace=wrap;html=1;aspect=fixed;" vertex="1" parent="1">
          <mxGeometry x="1019" y="370" width="80" height="80" as="geometry" />
        </mxCell>
        <mxCell id="uVGhcXkqrBgi1PUrehch-31" style="edgeStyle=orthogonalEdgeStyle;rounded=0;orthogonalLoop=1;jettySize=auto;html=1;exitX=0;exitY=0.5;exitDx=0;exitDy=0;entryX=1;entryY=0.5;entryDx=0;entryDy=0;" edge="1" parent="1" source="uVGhcXkqrBgi1PUrehch-32" target="uVGhcXkqrBgi1PUrehch-41">
          <mxGeometry relative="1" as="geometry" />
        </mxCell>
        <mxCell id="uVGhcXkqrBgi1PUrehch-32" value="NY" style="ellipse;whiteSpace=wrap;html=1;aspect=fixed;" vertex="1" parent="1">
          <mxGeometry x="899" y="370" width="80" height="80" as="geometry" />
        </mxCell>
        <mxCell id="uVGhcXkqrBgi1PUrehch-33" style="edgeStyle=orthogonalEdgeStyle;rounded=0;orthogonalLoop=1;jettySize=auto;html=1;exitX=0.5;exitY=0;exitDx=0;exitDy=0;entryX=0.5;entryY=1;entryDx=0;entryDy=0;" edge="1" parent="1" source="uVGhcXkqrBgi1PUrehch-34" target="uVGhcXkqrBgi1PUrehch-45">
          <mxGeometry relative="1" as="geometry" />
        </mxCell>
        <mxCell id="uVGhcXkqrBgi1PUrehch-114" style="edgeStyle=orthogonalEdgeStyle;rounded=0;orthogonalLoop=1;jettySize=auto;html=1;exitX=0;exitY=0.5;exitDx=0;exitDy=0;entryX=0.5;entryY=0;entryDx=0;entryDy=0;" edge="1" parent="1" source="uVGhcXkqrBgi1PUrehch-34" target="uVGhcXkqrBgi1PUrehch-2">
          <mxGeometry relative="1" as="geometry">
            <Array as="points">
              <mxPoint x="980" y="300" />
              <mxPoint x="980" y="60" />
              <mxPoint x="280" y="60" />
            </Array>
          </mxGeometry>
        </mxCell>
        <mxCell id="uVGhcXkqrBgi1PUrehch-34" value="Sydney" style="ellipse;whiteSpace=wrap;html=1;aspect=fixed;" vertex="1" parent="1">
          <mxGeometry x="1019" y="260" width="80" height="80" as="geometry" />
        </mxCell>
        <mxCell id="uVGhcXkqrBgi1PUrehch-35" style="edgeStyle=orthogonalEdgeStyle;rounded=0;orthogonalLoop=1;jettySize=auto;html=1;exitX=0.5;exitY=1;exitDx=0;exitDy=0;entryX=0.5;entryY=0;entryDx=0;entryDy=0;" edge="1" parent="1" source="uVGhcXkqrBgi1PUrehch-36" target="uVGhcXkqrBgi1PUrehch-44">
          <mxGeometry relative="1" as="geometry" />
        </mxCell>
        <mxCell id="uVGhcXkqrBgi1PUrehch-36" value="Los Angeles" style="ellipse;whiteSpace=wrap;html=1;aspect=fixed;" vertex="1" parent="1">
          <mxGeometry x="959" y="470" width="80" height="80" as="geometry" />
        </mxCell>
        <mxCell id="uVGhcXkqrBgi1PUrehch-37" style="edgeStyle=orthogonalEdgeStyle;rounded=0;orthogonalLoop=1;jettySize=auto;html=1;exitX=0.5;exitY=1;exitDx=0;exitDy=0;entryX=0.5;entryY=0;entryDx=0;entryDy=0;" edge="1" parent="1" source="uVGhcXkqrBgi1PUrehch-38" target="uVGhcXkqrBgi1PUrehch-43">
          <mxGeometry relative="1" as="geometry" />
        </mxCell>
        <mxCell id="uVGhcXkqrBgi1PUrehch-38" value="London" style="ellipse;whiteSpace=wrap;html=1;aspect=fixed;" vertex="1" parent="1">
          <mxGeometry x="1109" y="470" width="80" height="80" as="geometry" />
        </mxCell>
        <mxCell id="uVGhcXkqrBgi1PUrehch-39" style="edgeStyle=orthogonalEdgeStyle;rounded=0;orthogonalLoop=1;jettySize=auto;html=1;exitX=1;exitY=0.5;exitDx=0;exitDy=0;entryX=0;entryY=0.5;entryDx=0;entryDy=0;" edge="1" parent="1" source="uVGhcXkqrBgi1PUrehch-40" target="uVGhcXkqrBgi1PUrehch-42">
          <mxGeometry relative="1" as="geometry" />
        </mxCell>
        <mxCell id="uVGhcXkqrBgi1PUrehch-40" value="Paris" style="ellipse;whiteSpace=wrap;html=1;aspect=fixed;" vertex="1" parent="1">
          <mxGeometry x="1139" y="370" width="80" height="80" as="geometry" />
        </mxCell>
        <mxCell id="uVGhcXkqrBgi1PUrehch-41" value="Contry: USA&lt;br style=&quot;border-color: var(--border-color);&quot;&gt;Population: 85000000" style="rounded=0;whiteSpace=wrap;html=1;" vertex="1" parent="1">
          <mxGeometry x="780" y="350" width="106" height="120" as="geometry" />
        </mxCell>
        <mxCell id="uVGhcXkqrBgi1PUrehch-42" value="Contry: France&lt;br&gt;Population: 2200000" style="rounded=0;whiteSpace=wrap;html=1;" vertex="1" parent="1">
          <mxGeometry x="1229" y="350" width="106" height="120" as="geometry" />
        </mxCell>
        <mxCell id="uVGhcXkqrBgi1PUrehch-43" value="Contry: UK&lt;br style=&quot;border-color: var(--border-color);&quot;&gt;Population: 8900000" style="rounded=0;whiteSpace=wrap;html=1;" vertex="1" parent="1">
          <mxGeometry x="1096" y="570" width="106" height="120" as="geometry" />
        </mxCell>
        <mxCell id="uVGhcXkqrBgi1PUrehch-44" value="Contry: USA&lt;br style=&quot;border-color: var(--border-color);&quot;&gt;Population: 4000000" style="rounded=0;whiteSpace=wrap;html=1;" vertex="1" parent="1">
          <mxGeometry x="946" y="580" width="106" height="120" as="geometry" />
        </mxCell>
        <mxCell id="uVGhcXkqrBgi1PUrehch-45" value="Contry: Australia Population: 5000000" style="rounded=0;whiteSpace=wrap;html=1;" vertex="1" parent="1">
          <mxGeometry x="1006" y="130" width="106" height="120" as="geometry" />
        </mxCell>
        <mxCell id="uVGhcXkqrBgi1PUrehch-66" style="edgeStyle=orthogonalEdgeStyle;rounded=0;orthogonalLoop=1;jettySize=auto;html=1;exitX=0.5;exitY=0;exitDx=0;exitDy=0;entryX=0.5;entryY=1;entryDx=0;entryDy=0;" edge="1" parent="1" source="uVGhcXkqrBgi1PUrehch-71" target="uVGhcXkqrBgi1PUrehch-75">
          <mxGeometry relative="1" as="geometry" />
        </mxCell>
        <mxCell id="uVGhcXkqrBgi1PUrehch-67" style="edgeStyle=orthogonalEdgeStyle;rounded=0;orthogonalLoop=1;jettySize=auto;html=1;exitX=0;exitY=0.5;exitDx=0;exitDy=0;" edge="1" parent="1" source="uVGhcXkqrBgi1PUrehch-71" target="uVGhcXkqrBgi1PUrehch-73">
          <mxGeometry relative="1" as="geometry" />
        </mxCell>
        <mxCell id="uVGhcXkqrBgi1PUrehch-68" style="edgeStyle=orthogonalEdgeStyle;rounded=0;orthogonalLoop=1;jettySize=auto;html=1;exitX=0;exitY=1;exitDx=0;exitDy=0;" edge="1" parent="1" source="uVGhcXkqrBgi1PUrehch-71" target="uVGhcXkqrBgi1PUrehch-77">
          <mxGeometry relative="1" as="geometry" />
        </mxCell>
        <mxCell id="uVGhcXkqrBgi1PUrehch-69" style="edgeStyle=orthogonalEdgeStyle;rounded=0;orthogonalLoop=1;jettySize=auto;html=1;exitX=1;exitY=1;exitDx=0;exitDy=0;entryX=0;entryY=0;entryDx=0;entryDy=0;" edge="1" parent="1" source="uVGhcXkqrBgi1PUrehch-71" target="uVGhcXkqrBgi1PUrehch-79">
          <mxGeometry relative="1" as="geometry" />
        </mxCell>
        <mxCell id="uVGhcXkqrBgi1PUrehch-70" style="edgeStyle=orthogonalEdgeStyle;rounded=0;orthogonalLoop=1;jettySize=auto;html=1;exitX=1;exitY=0.5;exitDx=0;exitDy=0;" edge="1" parent="1" source="uVGhcXkqrBgi1PUrehch-71" target="uVGhcXkqrBgi1PUrehch-81">
          <mxGeometry relative="1" as="geometry" />
        </mxCell>
        <mxCell id="uVGhcXkqrBgi1PUrehch-87" style="edgeStyle=orthogonalEdgeStyle;rounded=0;orthogonalLoop=1;jettySize=auto;html=1;exitX=1;exitY=0;exitDx=0;exitDy=0;entryX=0;entryY=0.5;entryDx=0;entryDy=0;" edge="1" parent="1" source="uVGhcXkqrBgi1PUrehch-71" target="uVGhcXkqrBgi1PUrehch-86">
          <mxGeometry relative="1" as="geometry" />
        </mxCell>
        <mxCell id="uVGhcXkqrBgi1PUrehch-71" value="Movie" style="ellipse;whiteSpace=wrap;html=1;aspect=fixed;" vertex="1" parent="1">
          <mxGeometry x="360" y="1050" width="80" height="80" as="geometry" />
        </mxCell>
        <mxCell id="uVGhcXkqrBgi1PUrehch-72" style="edgeStyle=orthogonalEdgeStyle;rounded=0;orthogonalLoop=1;jettySize=auto;html=1;exitX=0;exitY=0.5;exitDx=0;exitDy=0;entryX=1;entryY=0.5;entryDx=0;entryDy=0;" edge="1" parent="1" source="uVGhcXkqrBgi1PUrehch-73">
          <mxGeometry relative="1" as="geometry">
            <mxPoint x="227" y="1090" as="targetPoint" />
          </mxGeometry>
        </mxCell>
        <mxCell id="uVGhcXkqrBgi1PUrehch-125" style="edgeStyle=orthogonalEdgeStyle;rounded=0;orthogonalLoop=1;jettySize=auto;html=1;exitX=0.5;exitY=1;exitDx=0;exitDy=0;entryX=0.5;entryY=1;entryDx=0;entryDy=0;" edge="1" parent="1" source="uVGhcXkqrBgi1PUrehch-73" target="uVGhcXkqrBgi1PUrehch-104">
          <mxGeometry relative="1" as="geometry">
            <Array as="points">
              <mxPoint x="280" y="1490" />
              <mxPoint x="1069" y="1490" />
            </Array>
          </mxGeometry>
        </mxCell>
        <mxCell id="uVGhcXkqrBgi1PUrehch-137" style="edgeStyle=orthogonalEdgeStyle;rounded=0;orthogonalLoop=1;jettySize=auto;html=1;exitX=1;exitY=0;exitDx=0;exitDy=0;entryX=0.013;entryY=0.704;entryDx=0;entryDy=0;entryPerimeter=0;" edge="1" parent="1" source="uVGhcXkqrBgi1PUrehch-73" target="uVGhcXkqrBgi1PUrehch-86">
          <mxGeometry relative="1" as="geometry">
            <Array as="points">
              <mxPoint x="308" y="1040" />
              <mxPoint x="380" y="1040" />
              <mxPoint x="380" y="996" />
            </Array>
          </mxGeometry>
        </mxCell>
        <mxCell id="uVGhcXkqrBgi1PUrehch-138" style="edgeStyle=orthogonalEdgeStyle;rounded=0;orthogonalLoop=1;jettySize=auto;html=1;exitX=0;exitY=1;exitDx=0;exitDy=0;entryX=0;entryY=1;entryDx=0;entryDy=0;" edge="1" parent="1" source="uVGhcXkqrBgi1PUrehch-73" target="uVGhcXkqrBgi1PUrehch-77">
          <mxGeometry relative="1" as="geometry">
            <Array as="points">
              <mxPoint x="252" y="1220" />
              <mxPoint x="312" y="1220" />
            </Array>
          </mxGeometry>
        </mxCell>
        <mxCell id="uVGhcXkqrBgi1PUrehch-73" value="Everything Everywhere All at once" style="ellipse;whiteSpace=wrap;html=1;aspect=fixed;" vertex="1" parent="1">
          <mxGeometry x="240" y="1050" width="80" height="80" as="geometry" />
        </mxCell>
        <mxCell id="uVGhcXkqrBgi1PUrehch-74" style="edgeStyle=orthogonalEdgeStyle;rounded=0;orthogonalLoop=1;jettySize=auto;html=1;exitX=0.5;exitY=0;exitDx=0;exitDy=0;entryX=0.5;entryY=1;entryDx=0;entryDy=0;" edge="1" parent="1" source="uVGhcXkqrBgi1PUrehch-75" target="uVGhcXkqrBgi1PUrehch-85">
          <mxGeometry relative="1" as="geometry" />
        </mxCell>
        <mxCell id="uVGhcXkqrBgi1PUrehch-135" style="edgeStyle=orthogonalEdgeStyle;rounded=0;orthogonalLoop=1;jettySize=auto;html=1;exitX=0;exitY=1;exitDx=0;exitDy=0;entryX=0;entryY=0.625;entryDx=0;entryDy=0;entryPerimeter=0;" edge="1" parent="1" source="uVGhcXkqrBgi1PUrehch-75" target="uVGhcXkqrBgi1PUrehch-79">
          <mxGeometry relative="1" as="geometry">
            <Array as="points">
              <mxPoint x="40" y="998" />
              <mxPoint x="40" y="1420" />
              <mxPoint x="410" y="1420" />
              <mxPoint x="410" y="1210" />
            </Array>
          </mxGeometry>
        </mxCell>
        <mxCell id="uVGhcXkqrBgi1PUrehch-75" value="Foorest Gump" style="ellipse;whiteSpace=wrap;html=1;aspect=fixed;" vertex="1" parent="1">
          <mxGeometry x="270" y="930" width="80" height="80" as="geometry" />
        </mxCell>
        <mxCell id="uVGhcXkqrBgi1PUrehch-76" style="edgeStyle=orthogonalEdgeStyle;rounded=0;orthogonalLoop=1;jettySize=auto;html=1;exitX=0.5;exitY=1;exitDx=0;exitDy=0;entryX=0.5;entryY=0;entryDx=0;entryDy=0;" edge="1" parent="1" source="uVGhcXkqrBgi1PUrehch-77" target="uVGhcXkqrBgi1PUrehch-84">
          <mxGeometry relative="1" as="geometry" />
        </mxCell>
        <mxCell id="uVGhcXkqrBgi1PUrehch-77" value="The fantastic Four" style="ellipse;whiteSpace=wrap;html=1;aspect=fixed;" vertex="1" parent="1">
          <mxGeometry x="300" y="1150" width="80" height="80" as="geometry" />
        </mxCell>
        <mxCell id="uVGhcXkqrBgi1PUrehch-78" style="edgeStyle=orthogonalEdgeStyle;rounded=0;orthogonalLoop=1;jettySize=auto;html=1;exitX=0.5;exitY=1;exitDx=0;exitDy=0;entryX=0.5;entryY=0;entryDx=0;entryDy=0;" edge="1" parent="1" source="uVGhcXkqrBgi1PUrehch-79" target="uVGhcXkqrBgi1PUrehch-83">
          <mxGeometry relative="1" as="geometry" />
        </mxCell>
        <mxCell id="uVGhcXkqrBgi1PUrehch-79" value="Pulp Fiction" style="ellipse;whiteSpace=wrap;html=1;aspect=fixed;" vertex="1" parent="1">
          <mxGeometry x="450" y="1160" width="80" height="80" as="geometry" />
        </mxCell>
        <mxCell id="uVGhcXkqrBgi1PUrehch-80" style="edgeStyle=orthogonalEdgeStyle;rounded=0;orthogonalLoop=1;jettySize=auto;html=1;exitX=1;exitY=0.5;exitDx=0;exitDy=0;entryX=0;entryY=0.5;entryDx=0;entryDy=0;" edge="1" parent="1" source="uVGhcXkqrBgi1PUrehch-81" target="uVGhcXkqrBgi1PUrehch-82">
          <mxGeometry relative="1" as="geometry" />
        </mxCell>
        <mxCell id="uVGhcXkqrBgi1PUrehch-136" style="edgeStyle=orthogonalEdgeStyle;rounded=0;orthogonalLoop=1;jettySize=auto;html=1;exitX=0;exitY=1;exitDx=0;exitDy=0;entryX=1;entryY=0.5;entryDx=0;entryDy=0;" edge="1" parent="1" source="uVGhcXkqrBgi1PUrehch-81" target="uVGhcXkqrBgi1PUrehch-77">
          <mxGeometry relative="1" as="geometry">
            <Array as="points">
              <mxPoint x="492" y="1140" />
              <mxPoint x="430" y="1140" />
              <mxPoint x="430" y="1190" />
            </Array>
          </mxGeometry>
        </mxCell>
        <mxCell id="uVGhcXkqrBgi1PUrehch-81" value="Mad Max" style="ellipse;whiteSpace=wrap;html=1;aspect=fixed;" vertex="1" parent="1">
          <mxGeometry x="480" y="1050" width="80" height="80" as="geometry" />
        </mxCell>
        <mxCell id="uVGhcXkqrBgi1PUrehch-82" value="Gender: Action&lt;br style=&quot;border-color: var(--border-color);&quot;&gt;Language: English&lt;br style=&quot;border-color: var(--border-color);&quot;&gt;Duration: 120" style="rounded=0;whiteSpace=wrap;html=1;" vertex="1" parent="1">
          <mxGeometry x="570" y="1030" width="106" height="120" as="geometry" />
        </mxCell>
        <mxCell id="uVGhcXkqrBgi1PUrehch-83" value="Gender: Crime&lt;br style=&quot;border-color: var(--border-color);&quot;&gt;Language: English&lt;br style=&quot;border-color: var(--border-color);&quot;&gt;Duration: 154" style="rounded=0;whiteSpace=wrap;html=1;" vertex="1" parent="1">
          <mxGeometry x="437" y="1250" width="106" height="120" as="geometry" />
        </mxCell>
        <mxCell id="uVGhcXkqrBgi1PUrehch-84" value="Gender: Action&lt;br style=&quot;border-color: var(--border-color);&quot;&gt;Language: English&lt;br style=&quot;border-color: var(--border-color);&quot;&gt;Duration: 100" style="rounded=0;whiteSpace=wrap;html=1;" vertex="1" parent="1">
          <mxGeometry x="287" y="1260" width="106" height="120" as="geometry" />
        </mxCell>
        <mxCell id="uVGhcXkqrBgi1PUrehch-85" value="Gender: Drama&lt;br&gt;Language: English&lt;br&gt;Duration: 142" style="rounded=0;whiteSpace=wrap;html=1;" vertex="1" parent="1">
          <mxGeometry x="257" y="760" width="106" height="120" as="geometry" />
        </mxCell>
        <mxCell id="uVGhcXkqrBgi1PUrehch-89" style="edgeStyle=orthogonalEdgeStyle;rounded=0;orthogonalLoop=1;jettySize=auto;html=1;exitX=1;exitY=0.5;exitDx=0;exitDy=0;entryX=0;entryY=0.5;entryDx=0;entryDy=0;" edge="1" parent="1" source="uVGhcXkqrBgi1PUrehch-86" target="uVGhcXkqrBgi1PUrehch-88">
          <mxGeometry relative="1" as="geometry" />
        </mxCell>
        <mxCell id="uVGhcXkqrBgi1PUrehch-86" value="The matrix" style="ellipse;whiteSpace=wrap;html=1;aspect=fixed;" vertex="1" parent="1">
          <mxGeometry x="470" y="940" width="80" height="80" as="geometry" />
        </mxCell>
        <mxCell id="uVGhcXkqrBgi1PUrehch-88" value="Gender: Sci-Fi&lt;br style=&quot;border-color: var(--border-color);&quot;&gt;Language: English&lt;br style=&quot;border-color: var(--border-color);&quot;&gt;Duration: 136" style="rounded=0;whiteSpace=wrap;html=1;" vertex="1" parent="1">
          <mxGeometry x="580" y="870" width="106" height="120" as="geometry" />
        </mxCell>
        <mxCell id="uVGhcXkqrBgi1PUrehch-91" value="Gender: Sci-Fi&lt;br style=&quot;border-color: var(--border-color);&quot;&gt;Language: English&lt;br style=&quot;border-color: var(--border-color);&quot;&gt;Duration: 140" style="rounded=0;whiteSpace=wrap;html=1;" vertex="1" parent="1">
          <mxGeometry x="121" y="1020" width="106" height="120" as="geometry" />
        </mxCell>
        <mxCell id="uVGhcXkqrBgi1PUrehch-93" style="edgeStyle=orthogonalEdgeStyle;rounded=0;orthogonalLoop=1;jettySize=auto;html=1;exitX=0.5;exitY=0;exitDx=0;exitDy=0;entryX=0.5;entryY=1;entryDx=0;entryDy=0;" edge="1" parent="1" source="uVGhcXkqrBgi1PUrehch-98" target="uVGhcXkqrBgi1PUrehch-102">
          <mxGeometry relative="1" as="geometry" />
        </mxCell>
        <mxCell id="uVGhcXkqrBgi1PUrehch-94" style="edgeStyle=orthogonalEdgeStyle;rounded=0;orthogonalLoop=1;jettySize=auto;html=1;exitX=0;exitY=0.5;exitDx=0;exitDy=0;" edge="1" parent="1" source="uVGhcXkqrBgi1PUrehch-98" target="uVGhcXkqrBgi1PUrehch-100">
          <mxGeometry relative="1" as="geometry" />
        </mxCell>
        <mxCell id="uVGhcXkqrBgi1PUrehch-95" style="edgeStyle=orthogonalEdgeStyle;rounded=0;orthogonalLoop=1;jettySize=auto;html=1;exitX=0;exitY=1;exitDx=0;exitDy=0;" edge="1" parent="1" source="uVGhcXkqrBgi1PUrehch-98" target="uVGhcXkqrBgi1PUrehch-104">
          <mxGeometry relative="1" as="geometry" />
        </mxCell>
        <mxCell id="uVGhcXkqrBgi1PUrehch-96" style="edgeStyle=orthogonalEdgeStyle;rounded=0;orthogonalLoop=1;jettySize=auto;html=1;exitX=1;exitY=1;exitDx=0;exitDy=0;entryX=0;entryY=0;entryDx=0;entryDy=0;" edge="1" parent="1" source="uVGhcXkqrBgi1PUrehch-98" target="uVGhcXkqrBgi1PUrehch-106">
          <mxGeometry relative="1" as="geometry" />
        </mxCell>
        <mxCell id="uVGhcXkqrBgi1PUrehch-97" style="edgeStyle=orthogonalEdgeStyle;rounded=0;orthogonalLoop=1;jettySize=auto;html=1;exitX=1;exitY=0.5;exitDx=0;exitDy=0;" edge="1" parent="1" source="uVGhcXkqrBgi1PUrehch-98" target="uVGhcXkqrBgi1PUrehch-108">
          <mxGeometry relative="1" as="geometry" />
        </mxCell>
        <mxCell id="uVGhcXkqrBgi1PUrehch-98" value="Year" style="ellipse;whiteSpace=wrap;html=1;aspect=fixed;" vertex="1" parent="1">
          <mxGeometry x="1089" y="1100" width="80" height="80" as="geometry" />
        </mxCell>
        <mxCell id="uVGhcXkqrBgi1PUrehch-126" style="edgeStyle=orthogonalEdgeStyle;rounded=0;orthogonalLoop=1;jettySize=auto;html=1;exitX=0.5;exitY=0;exitDx=0;exitDy=0;entryX=0.5;entryY=0;entryDx=0;entryDy=0;" edge="1" parent="1" source="uVGhcXkqrBgi1PUrehch-100" target="uVGhcXkqrBgi1PUrehch-86">
          <mxGeometry relative="1" as="geometry">
            <Array as="points">
              <mxPoint x="1009" y="850" />
              <mxPoint x="510" y="850" />
            </Array>
          </mxGeometry>
        </mxCell>
        <mxCell id="uVGhcXkqrBgi1PUrehch-100" value="1999" style="ellipse;whiteSpace=wrap;html=1;aspect=fixed;" vertex="1" parent="1">
          <mxGeometry x="969" y="1100" width="80" height="80" as="geometry" />
        </mxCell>
        <mxCell id="uVGhcXkqrBgi1PUrehch-121" style="edgeStyle=orthogonalEdgeStyle;rounded=0;orthogonalLoop=1;jettySize=auto;html=1;exitX=0.5;exitY=0;exitDx=0;exitDy=0;entryX=1;entryY=0.5;entryDx=0;entryDy=0;" edge="1" parent="1" source="uVGhcXkqrBgi1PUrehch-102" target="uVGhcXkqrBgi1PUrehch-75">
          <mxGeometry relative="1" as="geometry">
            <Array as="points">
              <mxPoint x="1129" y="820" />
              <mxPoint x="400" y="820" />
              <mxPoint x="400" y="970" />
            </Array>
          </mxGeometry>
        </mxCell>
        <mxCell id="uVGhcXkqrBgi1PUrehch-127" style="edgeStyle=orthogonalEdgeStyle;rounded=0;orthogonalLoop=1;jettySize=auto;html=1;exitX=0;exitY=0.5;exitDx=0;exitDy=0;entryX=1;entryY=0.5;entryDx=0;entryDy=0;" edge="1" parent="1" source="uVGhcXkqrBgi1PUrehch-102" target="uVGhcXkqrBgi1PUrehch-79">
          <mxGeometry relative="1" as="geometry" />
        </mxCell>
        <mxCell id="uVGhcXkqrBgi1PUrehch-102" value="1994" style="ellipse;whiteSpace=wrap;html=1;aspect=fixed;" vertex="1" parent="1">
          <mxGeometry x="1089" y="990" width="80" height="80" as="geometry" />
        </mxCell>
        <mxCell id="uVGhcXkqrBgi1PUrehch-104" value="2022" style="ellipse;whiteSpace=wrap;html=1;aspect=fixed;" vertex="1" parent="1">
          <mxGeometry x="1029" y="1200" width="80" height="80" as="geometry" />
        </mxCell>
        <mxCell id="uVGhcXkqrBgi1PUrehch-124" style="edgeStyle=orthogonalEdgeStyle;rounded=0;orthogonalLoop=1;jettySize=auto;html=1;exitX=0.5;exitY=1;exitDx=0;exitDy=0;entryX=0;entryY=0.5;entryDx=0;entryDy=0;" edge="1" parent="1" source="uVGhcXkqrBgi1PUrehch-106" target="uVGhcXkqrBgi1PUrehch-77">
          <mxGeometry relative="1" as="geometry">
            <Array as="points">
              <mxPoint x="1219" y="1440" />
              <mxPoint x="280" y="1440" />
              <mxPoint x="280" y="1190" />
            </Array>
          </mxGeometry>
        </mxCell>
        <mxCell id="uVGhcXkqrBgi1PUrehch-106" value="2005" style="ellipse;whiteSpace=wrap;html=1;aspect=fixed;" vertex="1" parent="1">
          <mxGeometry x="1179" y="1200" width="80" height="80" as="geometry" />
        </mxCell>
        <mxCell id="uVGhcXkqrBgi1PUrehch-123" style="edgeStyle=orthogonalEdgeStyle;rounded=0;orthogonalLoop=1;jettySize=auto;html=1;exitX=1;exitY=0.5;exitDx=0;exitDy=0;entryX=0.5;entryY=1;entryDx=0;entryDy=0;" edge="1" parent="1" source="uVGhcXkqrBgi1PUrehch-108" target="uVGhcXkqrBgi1PUrehch-81">
          <mxGeometry relative="1" as="geometry">
            <Array as="points">
              <mxPoint x="1309" y="1140" />
              <mxPoint x="1309" y="1360" />
              <mxPoint x="885" y="1360" />
              <mxPoint x="885" y="1160" />
              <mxPoint x="520" y="1160" />
            </Array>
          </mxGeometry>
        </mxCell>
        <mxCell id="uVGhcXkqrBgi1PUrehch-108" value="2015" style="ellipse;whiteSpace=wrap;html=1;aspect=fixed;" vertex="1" parent="1">
          <mxGeometry x="1209" y="1100" width="80" height="80" as="geometry" />
        </mxCell>
      </root>
    </mxGraphModel>
  </diagram>
</mxfile>
